<?xml version="1.0" encoding="UTF-8"?>
<svg version="1.1" xmlns="http://www.w3.org/2000/svg" width="512" height="512" fill="#a9a9a9">
<path d="M0 0 C0.96988861 0.00182281 1.93977722 0.00364563 2.9390564 0.00552368 C17.29056055 0.05091691 31.25442918 0.5562653 45.375 3.3125 C46.72053955 3.55395752 46.72053955 3.55395752 48.09326172 3.80029297 C107.90338904 14.62287989 165.41745829 48.68064457 202.375 97.3125 C202.79168945 97.85277832 203.20837891 98.39305664 203.63769531 98.94970703 C211.3209873 108.9447116 218.06342968 119.40459036 224.375 130.3125 C224.76929199 130.98974121 225.16358398 131.66698242 225.56982422 132.36474609 C240.47785371 158.28373809 250.03651819 187.77601638 254.375 217.3125 C254.55232666 218.51712891 254.72965332 219.72175781 254.91235352 220.96289062 C256.511325 232.62017354 256.7334053 244.18436098 256.6875 255.9375 C256.68476578 257.39233292 256.68476578 257.39233292 256.68197632 258.8765564 C256.63658309 273.22806055 256.1312347 287.19192918 253.375 301.3125 C253.21402832 302.20952637 253.05305664 303.10655273 252.88720703 304.03076172 C242.07054204 363.80816201 208.01770453 421.39971196 159.375 458.3125 C158.80813477 458.7451416 158.24126953 459.1777832 157.65722656 459.62353516 C149.20272438 466.04868714 140.56567974 471.97565359 131.375 477.3125 C130.72225098 477.69760742 130.06950195 478.08271484 129.39697266 478.47949219 C103.36635724 493.77164502 75.05092272 503.90735488 45.375 509.3125 C44.53936523 509.47621094 43.70373047 509.63992188 42.84277344 509.80859375 C15.12168188 515.1012992 -16.96309037 514.71190744 -44.625 509.3125 C-45.52202637 509.15152832 -46.41905273 508.99055664 -47.34326172 508.82470703 C-85.87848868 501.85179355 -121.29615363 485.60495778 -152.81103516 462.62255859 C-156.0071669 460.31428902 -159.27855235 458.11451056 -162.546875 455.91015625 C-165.14052093 453.91616906 -167.32225963 451.63714144 -169.625 449.3125 C-171.35850891 447.60068499 -173.09292601 445.88978932 -174.828125 444.1796875 C-176.33104046 442.69155945 -177.83296916 441.20244328 -179.33447266 439.71289062 C-180.35250564 438.7048605 -181.37233337 437.69863936 -182.39404297 436.69433594 C-197.34367022 421.99152998 -210.09296688 405.44990473 -220.625 387.3125 C-221.01010742 386.65975098 -221.39521484 386.00700195 -221.79199219 385.33447266 C-237.08414502 359.30385724 -247.21985488 330.98842272 -252.625 301.3125 C-252.78871094 300.47686523 -252.95242187 299.64123047 -253.12109375 298.78027344 C-258.4137992 271.05918188 -258.02440744 238.97440963 -252.625 211.3125 C-252.38354248 209.96696045 -252.38354248 209.96696045 -252.13720703 208.59423828 C-244.24762494 164.99311844 -224.5600709 123.84723097 -195.625 90.3125 C-194.65626953 89.17748047 -194.65626953 89.17748047 -193.66796875 88.01953125 C-183.02559817 75.8713568 -171.53666267 64.04618663 -158.625 54.3125 C-158.08762207 53.89871094 -157.55024414 53.48492187 -156.99658203 53.05859375 C-146.9986221 45.37173411 -136.53688153 38.62636855 -125.625 32.3125 C-124.94775879 31.91820801 -124.27051758 31.52391602 -123.57275391 31.11767578 C-97.65376191 16.20964629 -68.16148362 6.65098181 -38.625 2.3125 C-37.42037109 2.13517334 -36.21574219 1.95784668 -34.97460938 1.77514648 C-23.31732646 0.176175 -11.75313902 -0.0459053 0 0 Z M-2.54215431 177.98355865 C-3.72297112 179.16714085 -3.72297112 179.16714085 -4.92764282 180.37463379 C-5.83070663 181.27494827 -6.73377045 182.17526276 -7.66419983 183.1028595 C-8.66766442 184.11340313 -9.67103339 185.12404173 -10.67431641 186.13476562 C-11.72835577 187.18936878 -12.78283504 188.24353243 -13.83772278 189.29728699 C-16.70771169 192.16670014 -19.57147611 195.04225482 -22.43420076 197.91891289 C-25.42420051 200.92138298 -28.41983401 203.91822106 -31.41488647 206.91564941 C-37.08892911 212.59591771 -42.75785266 218.28126675 -48.42497575 223.96843767 C-54.87562122 230.44140839 -61.33192088 236.90872673 -67.78871274 243.37556553 C-81.07379728 256.68157667 -94.35172874 269.99470516 -107.625 283.3125 C-106.10298846 286.5054565 -104.52075181 288.66093698 -102.00146484 291.16308594 C-100.8905397 292.27378448 -100.8905397 292.27378448 -99.75717163 293.40692139 C-98.55866074 294.58994843 -98.55866074 294.58994843 -97.3359375 295.796875 C-96.51751373 296.61246887 -95.69908997 297.42806274 -94.85586548 298.26837158 C-92.24190027 300.87114562 -89.62106495 303.46687762 -87 306.0625 C-85.22610546 307.8263634 -83.45266234 309.5906809 -81.6796875 311.35546875 C-77.33334858 315.67976136 -72.98134919 319.9982933 -68.625 324.3125 C-63.95200305 320.40766632 -59.52171582 316.35103642 -55.23071289 312.03173828 C-54.6347229 311.43589432 -54.03873291 310.84005035 -53.42468262 310.22615051 C-51.47995705 308.28073528 -49.5387852 306.33181586 -47.59765625 304.3828125 C-46.24024512 303.02353383 -44.88261121 301.6644776 -43.52476501 300.30563354 C-39.96997567 296.74704553 -36.41820107 293.18546355 -32.86706543 289.62322998 C-29.23547362 285.9813668 -25.60101168 282.34237037 -21.96679688 278.703125 C-14.85006729 271.57570489 -7.73652223 264.44511559 -0.625 257.3125 C3.74269886 258.9869263 6.57622277 262.24765853 9.79589844 265.50634766 C10.43046463 266.1406218 11.06503082 266.77489594 11.71882629 267.4283905 C13.81211882 269.52307478 15.8982408 271.62475102 17.984375 273.7265625 C19.43553753 275.1814557 20.88714267 276.63590756 22.33917236 278.0899353 C26.15761418 281.91600926 29.97001149 285.74805162 33.78118896 289.58135986 C37.67211379 293.49275204 41.56871428 297.39848085 45.46484375 301.3046875 C53.10713399 308.96842027 60.74305174 316.63846905 68.375 324.3125 C72.08469836 321.17316462 75.76685186 318.0475281 79.19897461 314.60205078 C79.85913071 313.94181915 80.5192868 313.28158752 81.19944763 312.60134888 C81.88515335 311.91048187 82.57085907 311.21961487 83.27734375 310.5078125 C83.9999086 309.7838327 84.72247345 309.05985291 85.4669342 308.31393433 C87.75116922 306.02414735 90.03188312 303.73089007 92.3125 301.4375 C93.87021039 299.87476839 95.42815087 298.3122661 96.98632812 296.75 C100.78521602 292.9401469 104.58122713 289.12744621 108.375 285.3125 C106.87239892 281.80255852 104.85009946 279.53626531 102.16174316 276.84527588 C101.27839798 275.95629105 100.3950528 275.06730621 99.48493958 274.15138245 C98.50373188 273.17406312 97.52242041 272.19684797 96.54101562 271.21972656 C95.5090807 270.18508105 94.47757162 269.15001066 93.44645691 268.11454773 C90.64748373 265.30645862 87.84222322 262.50473045 85.03552055 259.70436954 C82.10129372 256.77520407 79.17194719 253.8411646 76.24182129 250.90789795 C71.32252251 245.98496108 66.39902237 241.06625559 61.47314453 236.14990234 C55.77193214 230.45958627 50.07797694 224.76208454 44.38771486 219.06081986 C39.50558335 214.16962541 34.61958138 209.28232299 29.73029661 204.39827895 C26.80841829 201.47952426 23.88792141 198.5594218 20.97090149 195.63581085 C18.23068808 192.88983863 15.48566399 190.14876979 12.73678017 187.41147804 C11.72641061 186.40376242 10.71775657 185.39432353 9.7109127 184.38308525 C8.34130259 183.0080476 6.96497113 181.63971432 5.58825684 180.27178955 C4.81839195 179.50267872 4.04852707 178.73356789 3.25533295 177.94115067 C0.66237522 175.69525994 0.04152178 175.73153633 -2.54215431 177.98355865 Z" transform="translate(255.625,-0.3125)"/>
</svg>
